<svg width="48" height="48" viewBox="0 0 48 48" fill="none" xmlns="http://www.w3.org/2000/svg">
<path fill="#585858" d="M28 6C35.732 6 42 12.268 42 20C42 27.732 35.732 34 28 34C24.5841 34 21.4539 32.7766 19.0237 30.7441L8.1338 41.6339C7.6457 42.122 6.8542 42.122 6.3661 41.6339C5.8779 41.1457 5.8779 40.3543 6.3661 39.8661L17.2559 28.9763C15.2234 26.5461 14 23.4159 14 20C14 12.268 20.268 6 28 6ZM39.5 20C39.5 13.6487 34.3513 8.5 28 8.5C21.6487 8.5 16.5 13.6487 16.5 20C16.5 26.3513 21.6487 31.5 28 31.5C34.3513 31.5 39.5 26.3513 39.5 20Z" />
</svg>
